<svg width="31" height="31" viewBox="0 0 31 31" fill="none" xmlns="http://www.w3.org/2000/svg">
<path d="M10.7868 17.6904L16.5364 23.4158C16.7711 23.6482 17.0882 23.7782 17.4184 23.7775C17.7487 23.7768 18.0652 23.6454 18.2989 23.4121C18.4158 23.2957 18.5085 23.1572 18.5717 23.0048C18.6348 22.8523 18.6671 22.6889 18.6668 22.5239C18.6664 22.3588 18.6334 22.1955 18.5697 22.0433C18.5059 21.8911 18.4126 21.7531 18.2952 21.6371L12.5331 15.9243C12.4157 15.8083 12.3224 15.6703 12.2587 15.5181C12.1949 15.3659 12.1619 15.2026 12.1615 15.0375C12.1612 14.8725 12.1935 14.7091 12.2566 14.5566C12.3198 14.4042 12.4125 14.2657 12.5294 14.1493L18.2673 8.41216C18.5022 8.17795 18.6344 7.86002 18.6349 7.52831C18.6354 7.1966 18.5041 6.87829 18.2698 6.64341C18.0356 6.40852 17.7177 6.27629 17.386 6.27582C17.0543 6.27535 16.736 6.40667 16.5011 6.64088L10.7757 12.3905C10.0749 13.0951 9.68247 14.049 9.68456 15.0428C9.68666 16.0365 10.0831 16.9888 10.7868 17.6904Z" fill="#D81200"/>
</svg>
