<svg width="10" height="18" viewBox="0 0 10 18" fill="none" xmlns="http://www.w3.org/2000/svg">
<path d="M1.75609 11.6578L7.50566 17.3832C7.74036 17.6155 8.05745 17.7455 8.38768 17.7448C8.71791 17.7441 9.03445 17.6128 9.26816 17.3795C9.38507 17.263 9.47778 17.1246 9.54092 16.9721C9.60405 16.8197 9.63638 16.6562 9.63604 16.4912C9.63569 16.3262 9.60267 16.1629 9.53889 16.0107C9.47511 15.8585 9.38182 15.7204 9.26442 15.6045L3.50237 9.89161C3.38496 9.77565 3.29168 9.6376 3.2279 9.48541C3.16412 9.33322 3.1311 9.16991 3.13075 9.00489C3.1304 8.83988 3.16273 8.67643 3.22587 8.52397C3.28901 8.37151 3.38171 8.23306 3.49863 8.11661L9.23655 2.37951C9.47144 2.14529 9.60366 1.82736 9.60414 1.49565C9.60461 1.16395 9.47329 0.845639 9.23907 0.610752C9.00486 0.375865 8.68692 0.24364 8.35522 0.243168C8.02351 0.242694 7.7052 0.374012 7.47031 0.608231L1.74492 6.35781C1.04415 7.06241 0.651709 8.01636 0.653803 9.01011C0.655897 10.0039 1.05235 10.9561 1.75609 11.6578Z" fill="#D81200"/>
</svg>
