<svg width="20" height="20" viewBox="0 0 20 20" fill="none" xmlns="http://www.w3.org/2000/svg">
<path d="M17.55 0H1.95C0.8775 0 0 0.8775 0 1.95V17.55C0 18.6225 0.8775 19.5 1.95 19.5H17.55C18.6225 19.5 19.5 18.6225 19.5 17.55V1.95C19.5 0.8775 18.6225 0 17.55 0ZM5.85 16.575H2.925V7.8H5.85V16.575ZM4.3875 6.1425C3.4125 6.1425 2.6325 5.3625 2.6325 4.3875C2.6325 3.4125 3.4125 2.6325 4.3875 2.6325C5.3625 2.6325 6.1425 3.4125 6.1425 4.3875C6.1425 5.3625 5.3625 6.1425 4.3875 6.1425ZM16.575 16.575H13.65V11.4075C13.65 10.6275 12.9675 9.945 12.1875 9.945C11.4075 9.945 10.725 10.6275 10.725 11.4075V16.575H7.8V7.8H10.725V8.97C11.2125 8.19 12.285 7.605 13.1625 7.605C15.015 7.605 16.575 9.165 16.575 11.0175V16.575Z" fill="#D81200"/>
</svg>
