<svg width="20" height="25" viewBox="0 0 20 25" fill="none" xmlns="http://www.w3.org/2000/svg">
<path d="M9.66667 12.0833C10.3312 12.0833 10.9004 11.8465 11.374 11.3728C11.8477 10.8992 12.0841 10.3304 12.0833 9.66667C12.0833 9.00208 11.8465 8.43296 11.3728 7.95929C10.8992 7.48562 10.3304 7.24919 9.66667 7.25C9.00208 7.25 8.43296 7.48683 7.95929 7.9605C7.48562 8.43417 7.24919 9.00289 7.25 9.66667C7.25 10.3312 7.48683 10.9004 7.9605 11.374C8.43417 11.8477 9.00289 12.0841 9.66667 12.0833ZM9.66667 24.1667C6.42431 21.4076 4.00281 18.8452 2.40217 16.4792C0.801528 14.1133 0.000805555 11.923 0 9.90833C0 6.8875 0.971903 4.4809 2.91571 2.68854C4.85951 0.89618 7.10983 0 9.66667 0C12.2243 0 14.475 0.89618 16.4188 2.68854C18.3626 4.4809 19.3341 6.8875 19.3333 9.90833C19.3333 11.9222 18.5326 14.1125 16.9312 16.4792C15.3297 18.846 12.9082 21.4084 9.66667 24.1667Z" fill="#D81200"/>
</svg>
