<svg width="21" height="21" viewBox="0 0 21 21" fill="none" xmlns="http://www.w3.org/2000/svg">
<g clip-path="url(#clip0_71_796)">
<path d="M16.5376 14.679C17.9346 12.8121 18.5725 10.4853 18.3229 8.16704C18.0733 5.84874 16.9548 3.71106 15.1924 2.1843C13.4301 0.657535 11.1549 -0.144945 8.82466 -0.0616077C6.49445 0.0217297 4.28233 0.984697 2.63357 2.63345C0.984819 4.28221 0.0218517 6.49433 -0.0614856 8.82453C-0.144823 11.1547 0.657657 13.43 2.18442 15.1923C3.71118 16.9546 5.84886 18.0732 8.16716 18.3228C10.4855 18.5724 12.8122 17.9345 14.6791 16.5375L19.1416 21L21.0001 19.145L16.5376 14.679ZM9.18762 15.75C7.88968 15.75 6.62089 15.3651 5.54169 14.644C4.46249 13.9229 3.62136 12.898 3.12466 11.6989C2.62796 10.4997 2.498 9.18022 2.75122 7.90722C3.00443 6.63422 3.62945 5.46489 4.54723 4.54711C5.46501 3.62933 6.63434 3.00431 7.90734 2.75109C9.18034 2.49788 10.4998 2.62784 11.699 3.12454C12.8981 3.62124 13.923 4.46237 14.6441 5.54157C15.3652 6.62076 15.7501 7.88956 15.7501 9.1875C15.7485 10.9275 15.0566 12.5957 13.8262 13.8261C12.5959 15.0565 10.9276 15.7484 9.18762 15.75Z" fill="#D81200"/>
</g>
<defs>
<clipPath id="clip0_71_796">
<rect width="21" height="21" fill="white"/>
</clipPath>
</defs>
</svg>
