<svg width="7" height="14" viewBox="0 0 7 14" fill="none" xmlns="http://www.w3.org/2000/svg">
<path d="M6.03347 4.67743L1.63472 0.278676C1.45517 0.100186 1.21228 0 0.959098 0C0.70592 0 0.463029 0.100186 0.283473 0.278676C0.19365 0.367766 0.122356 0.473758 0.0737027 0.59054C0.0250494 0.707322 0 0.832581 0 0.959093C0 1.0856 0.0250494 1.21086 0.0737027 1.32765C0.122356 1.44443 0.19365 1.55042 0.283473 1.63951L4.69181 6.02868C4.78163 6.11777 4.85292 6.22376 4.90158 6.34054C4.95023 6.45732 4.97528 6.58258 4.97528 6.70909C4.97528 6.8356 4.95023 6.96086 4.90158 7.07765C4.85292 7.19443 4.78163 7.30042 4.69181 7.38951L0.283473 11.7787C0.103016 11.9579 0.00113075 12.2014 0.00023214 12.4557C-0.000666472 12.71 0.0994956 12.9543 0.278683 13.1347C0.457869 13.3152 0.701403 13.4171 0.95571 13.418C1.21002 13.4189 1.45427 13.3187 1.63472 13.1395L6.03347 8.74076C6.57187 8.2017 6.87428 7.47097 6.87428 6.70909C6.87428 5.94722 6.57187 5.21649 6.03347 4.67743Z" fill="white"/>
</svg>
